# xmcd
#
# Track frame offsets: 
#        150
#        21084
#        40977
#        55137
#        81735
#        102443
#
# Disc length: 1712 seconds
#
# Revision: 0
# Processed by: cddbd v1.4PL0 Copyright (c) Steve Scherf et al.
# Submitted via: ExactAudioCopy v0.95a3
#
DISCID=4c06ae06
DTITLE=Lacy Green - A Collection Of Acoustic Covers
DYEAR=2003
DGENRE=
TTITLE0=Poor Wayfarin' Stranger
TTITLE1=Love Will Keep Us Alive
TTITLE2=The Lucky One
TTITLE3=Travelin' Soldier
TTITLE4=Wade In The Water
TTITLE5=Not Long For This Earth
EXTD=
EXTT0=
EXTT1=
EXTT2=
EXTT3=
EXTT4=
EXTT5=
PLAYORDER=
